<?xml version="1.0" encoding="utf-8"?>
<svg version="1.1" xmlns:xlink="http://www.w3.org/1999/xlink" width="32px" height="32px" xmlns="http://www.w3.org/2000/svg">
  <g transform="matrix(1 0 0 1 -353 -10 )">
    <path d="M 19.770833333333332 19.770833333333336  C 20.8125 18.729166666666664  21.333333333333332 17.47222222222222  21.333333333333332 16  C 21.333333333333332 14.527777777777775  20.8125 13.270833333333332  19.770833333333332 12.229166666666668  C 18.729166666666668 11.1875  17.472222222222225 10.666666666666668  16 10.666666666666668  C 14.527777777777779 10.666666666666668  13.270833333333334 11.1875  12.229166666666666 12.229166666666668  C 11.1875 13.270833333333332  10.666666666666666 14.527777777777775  10.666666666666666 16  C 10.666666666666666 17.47222222222222  11.1875 18.729166666666664  12.229166666666666 19.770833333333336  C 13.270833333333334 20.8125  14.527777777777779 21.333333333333336  16 21.333333333333336  C 17.472222222222225 21.333333333333336  18.729166666666668 20.8125  19.770833333333332 19.770833333333336  Z M 31.833333333333332 13.239583333333332  C 31.944444444444443 13.385416666666668  32 13.54861111111111  32 13.729166666666668  L 32 18.354166666666664  C 32 18.520833333333336  31.944444444444443 18.680555555555557  31.833333333333332 18.833333333333336  C 31.722222222222225 18.986111111111107  31.583333333333332 19.076388888888886  31.416666666666668 19.104166666666664  L 27.5625 19.6875  C 27.298611111111114 20.4375  27.027777777777782 21.069444444444443  26.75 21.583333333333336  C 27.236111111111114 22.27777777777778  27.979166666666668 23.236111111111107  28.979166666666668 24.458333333333332  C 29.118055555555557 24.625  29.1875 24.79861111111111  29.1875 24.979166666666668  C 29.1875 25.159722222222225  29.125 25.319444444444443  29 25.458333333333332  C 28.625 25.972222222222225  27.9375 26.722222222222225  26.9375 27.708333333333332  C 25.9375 28.694444444444443  25.284722222222225 29.1875  24.979166666666668 29.1875  C 24.8125 29.1875  24.631944444444446 29.125  24.4375 29  L 21.5625 26.75  C 20.95138888888889 27.069444444444443  20.319444444444446 27.333333333333332  19.666666666666668 27.541666666666668  C 19.444444444444446 29.430555555555557  19.243055555555557 30.722222222222225  19.0625 31.416666666666668  C 18.96527777777778 31.805555555555557  18.71527777777778 32  18.3125 32  L 13.6875 32  C 13.493055555555557 32  13.322916666666666 31.940972222222225  13.177083333333334 31.822916666666668  C 13.03125 31.70486111111111  12.951388888888891 31.555555555555557  12.9375 31.375  L 12.354166666666666 27.541666666666668  C 11.673611111111112 27.319444444444443  11.048611111111112 27.0625  10.479166666666666 26.770833333333332  L 7.541666666666667 29  C 7.402777777777779 29.125  7.229166666666667 29.1875  7.020833333333333 29.1875  C 6.826388888888889 29.1875  6.652777777777779 29.11111111111111  6.5 28.958333333333332  C 4.75 27.375  3.6041666666666665 26.208333333333332  3.0625 25.458333333333332  C 2.965277777777778 25.319444444444443  2.9166666666666665 25.159722222222225  2.9166666666666665 24.979166666666668  C 2.9166666666666665 24.8125  2.9722222222222228 24.652777777777775  3.0833333333333335 24.5  C 3.2916666666666665 24.208333333333332  3.6458333333333335 23.74652777777778  4.145833333333333 23.114583333333336  C 4.645833333333333 22.482638888888886  5.020833333333333 21.99305555555555  5.270833333333333 21.645833333333336  C 4.895833333333333 20.951388888888886  4.611111111111112 20.263888888888886  4.416666666666667 19.583333333333336  L 0.6041666666666666 19.020833333333336  C 0.42361111111111116 18.993055555555557  0.2777777777777778 18.90625  0.16666666666666666 18.760416666666664  C 0.05555555555555555 18.614583333333336  0 18.451388888888886  0 18.270833333333336  L 0 13.645833333333332  C 0 13.479166666666668  0.05555555555555555 13.319444444444443  0.16666666666666666 13.166666666666668  C 0.2777777777777778 13.01388888888889  0.40972222222222227 12.92361111111111  0.5625 12.895833333333332  L 4.4375 12.3125  C 4.631944444444445 11.67361111111111  4.902777777777778 11.034722222222221  5.25 10.395833333333332  C 4.694444444444445 9.604166666666668  3.9513888888888893 8.645833333333332  3.0208333333333335 7.520833333333332  C 2.8819444444444446 7.354166666666668  2.8125 7.1875  2.8125 7.020833333333332  C 2.8125 6.881944444444443  2.875 6.722222222222218  3 6.541666666666668  C 3.361111111111111 6.041666666666668  4.045138888888889 5.295138888888886  5.052083333333333 4.302083333333332  C 6.059027777777779 3.309027777777775  6.715277777777779 2.8125  7.020833333333333 2.8125  C 7.201388888888889 2.8125  7.3819444444444455 2.881944444444443  7.5625 3.020833333333332  L 10.4375 5.25  C 11.048611111111112 4.930555555555554  11.680555555555557 4.666666666666668  12.333333333333334 4.458333333333332  C 12.555555555555557 2.569444444444443  12.756944444444445 1.277777777777775  12.9375 0.5833333333333321  C 13.034722222222223 0.19444444444444287  13.284722222222223 0  13.6875 0  L 18.3125 0  C 18.506944444444446 0  18.677083333333332 0.059027777777775015  18.822916666666668 0.17708333333333215  C 18.96875 0.29513888888888573  19.04861111111111 0.44444444444444287  19.0625 0.625  L 19.645833333333332 4.458333333333332  C 20.32638888888889 4.680555555555554  20.95138888888889 4.9375  21.520833333333332 5.229166666666668  L 24.479166666666668 3  C 24.604166666666668 2.875  24.770833333333332 2.8125  24.979166666666668 2.8125  C 25.159722222222225 2.8125  25.333333333333332 2.881944444444443  25.5 3.020833333333332  C 27.291666666666668 4.673611111111111  28.4375 5.854166666666668  28.9375 6.5625  C 29.034722222222225 6.673611111111111  29.083333333333332 6.826388888888886  29.083333333333332 7.020833333333332  C 29.083333333333332 7.1875  29.027777777777782 7.347222222222218  28.916666666666668 7.5  C 28.708333333333332 7.791666666666668  28.354166666666668 8.253472222222218  27.854166666666668 8.885416666666668  C 27.354166666666668 9.51736111111111  26.979166666666668 10.006944444444443  26.729166666666668 10.354166666666668  C 27.090277777777782 11.04861111111111  27.375 11.729166666666664  27.583333333333332 12.395833333333332  L 31.395833333333332 12.979166666666668  C 31.57638888888889 13.006944444444443  31.722222222222225 13.093749999999996  31.833333333333332 13.239583333333332  Z " fill-rule="nonzero" fill="#000000" stroke="none" transform="matrix(1 0 0 1 353 10 )" />
  </g>
</svg>