<?xml version="1.0" encoding="utf-8"?>
<svg version="1.1" xmlns:xlink="http://www.w3.org/1999/xlink" width="27px" height="27px" xmlns="http://www.w3.org/2000/svg">
  <g transform="matrix(1 0 0 1 -47 -170 )">
    <path d="M 26.55592105263158 6.505756578947368  C 26.553865381088567 8.307550928076981  25.0937351386033 9.767681170562252  23.291940789473685 9.769736842105264  L 16.29769736842105 9.769736842105264  C 14.237529913460133 9.769736842105264  12.567434210526317 8.099641139171446  12.567434210526317 6.0394736842105265  C 12.567434210526317 3.9793062292496053  14.237529913460133 2.3092105263157894  16.29769736842105 2.3092105263157894  L 16.37603289473684 2.3092105263157894  C 17.21878961291141 1.131994656126056  18.580196217511254 0.4366899551046847  20.027960526315788 0.44407894736842063  C 21.953960536315268 0.44390313148791644  23.680375024037772 1.6320650576106495  24.368121710526317 3.4310871710526305  C 25.6818781428806 3.879965199884529  26.562415235171592 5.117446356441816  26.55592105263158 6.505756578947368  Z M 17.336575657894738 4.174342105263158  L 16.29769736842105 4.174342105263158  C 15.267613640940596 4.174342105263158  14.432565789473683 5.009389956730066  14.432565789473683 6.0394736842105265  C 14.432565789473683 7.069557411690986  15.267613640940596 7.904605263157895  16.29769736842105 7.904605263157895  L 23.291940789473685 7.904605263157895  C 24.064077595864152 7.903577800973798  24.689762011500115 7.277893385337836  24.690789473684212 6.505756578947368  C 24.692012527413315 5.814415123826496  24.18350703111478 5.227922869097194  23.498970394736844 5.131154605263157  L 22.882544407894738 5.0388305921052625  L 22.73146875 4.43359539473684  C 22.437591885867572 3.188951634539891  21.32653473080315 2.3096793777420785  20.04766737995338 2.3096793777420785  C 19.029243718983583 2.3096793777420785  18.093729275415654 2.8709945434635227  17.614480263157894 3.769608552631579  L 17.336575657894738 4.174342105263158  Z M 26.55592105263158 24.690789473684212  L 10.702302631578947 24.690789473684212  L 10.702302631578949 21.78864473684211  C 12.363958355371897 21.595748774536723  13.911252583916724 20.84560527983961  15.091889802631579 19.660529605263157  C 15.455946643149236 19.296362802972933  15.455946643149236 18.70604838123759  15.091889802631579 18.341881578947365  L 11.135013157894736 14.385937499999995  L 13.5 12.020950657894737  L 12.18135197368421 10.702302631578947  L 9.816365131578948 13.06728947368421  L 5.86042105263158 9.110412828947368  C 5.496254250341356 8.746355988429716  4.905939828606015 8.746355988429716  4.5417730263157905 9.110412828947368  C 1.628696724444547 12.023853993716555  1.628696724444547 16.74708844049397  4.5417730263157905 19.660529605263157  C 4.692848684210528 19.81253782894737  4.851384868421054 19.95242269736842  5.01271875 20.089509868421054  L 2.712078947368421 24.690789473684212  L 0.444078947368421 24.690789473684212  L 0.444078947368421 26.55592105263158  L 26.55592105263158 26.55592105263158  L 26.55592105263158 24.690789473684212  Z M 8.837171052631579 21.774656250000003  L 8.837171052631579 24.690789473684212  L 4.797296052631578 24.690789473684212  L 6.589687499999999 21.106939144736845  C 7.2983619435755545 21.448161273560196  8.057146583499984 21.67359272674936  8.837171052631579 21.774656250000003  Z M 13.05982894736842 18.94711677631579  C 10.833568210843223 20.528142721819023  7.791475364085038 20.272402014883003  5.860421052631578 18.341881578947365  C 3.9299782369276275 16.410893653485918  3.673865521248212 13.369062630339604  5.2542532894736835 11.142473684210527  L 13.05982894736842 18.94711677631579  Z " fill-rule="nonzero" fill="#333333" stroke="none" transform="matrix(1 0 0 1 47 170 )" />
  </g>
</svg>