<?xml version="1.0" encoding="utf-8"?>
<svg version="1.1" xmlns:xlink="http://www.w3.org/1999/xlink" width="19px" height="16px" xmlns="http://www.w3.org/2000/svg">
  <g transform="matrix(1 0 0 1 -119 -2350 )">
    <path d="M 18.47222222222222 2.769230769230769  C 18.47222222222222 1.8102564102564107  17.664722222222224 1.0256410256410258  16.67777777777778 1  L 2.3222222222222224 1  C 1.335277777777778 1.0256410256410258  0.5367499999999998 1.8102564102564107  0.5367499999999998 2.769230769230769  L 0.5277777777777779 13.23076923076923  C 0.5277777777777779 14.189743589743593  1.335277777777778 14.974358974358976  2.3222222222222224 15  L 16.67777777777778 15  C 17.664722222222224 14.974358974358976  18.47222222222222 14.189743589743593  18.47222222222222 13.23076923076923  L 18.47222222222222 2.769230769230769  Z M 16.70821149468818 4.084594908758867  C 16.70821149468818 4.352537418076666  16.559349414412267 4.599609774940859  16.31888888888889 4.730769230769231  L 9.97552777777778 8.584102564102563  C 9.688416666666669 8.758461538461537  9.311583333333335 8.758461538461537  9.024472222222222 8.584102564102563  L 2.6811111111111114 4.730769230769231  C 2.44065058558773 4.59960977494086  2.291788505311817 4.352537418076665  2.291788505311817 4.084594908758863  C 2.291788505311817 3.675337747986814  2.6332335662394715 3.3435692677332223  3.0544273942007067 3.3435692677332223  C 3.2095855861807183 3.3435692677332223  3.36105281565897 3.3895537317604383  3.4886111111111116 3.4753846153846157  L 9.5 7.128205128205129  L 15.51138888888889 3.475384615384615  C 15.63894718434103 3.389553731760439  15.790414413819276 3.3435692677332267  15.94557260579929 3.3435692677332267  C 16.366766433760525 3.3435692677332267  16.70821149468818 3.6753377479868172  16.70821149468818 4.084594908758867  Z " fill-rule="nonzero" fill="#ffffff" stroke="none" fill-opacity="0.996078431372549" transform="matrix(1 0 0 1 119 2350 )" />
  </g>
</svg>