<?xml version="1.0" encoding="utf-8"?>
<svg version="1.1" xmlns:xlink="http://www.w3.org/1999/xlink" width="41px" height="41px" xmlns="http://www.w3.org/2000/svg">
  <g>
    <path d="M 41 20.5  C 41 31.98  31.98 41  20.5 41  C 9.02 41  0 31.98  0 20.5  C 0 9.02  9.02 0  20.5 0  C 31.98 0  41 9.02  41 20.5  Z M 30.700000000000003 30  C 32.102500000000006 30.52564102564103  33.25 29.397756410256417  33 28.019230769230766  L 33 12.98076923076923  C 33.25 11.60224358974359  32.102500000000006 10.474358974358974  30.700000000000003 11  L 10.3 11  C 8.8975 10.474358974358974  7.7627500000000005 11.60224358974359  8 12.98076923076923  L 8 28.019230769230766  C 7.75 29.397756410256417  8.8975 30.52564102564103  10.3 30  L 30.700000000000003 30  Z M 29.0425 13.995865384615385  C 29.22376705143199 13.872483489405631  29.439009956480024 13.806380822366513  29.659497913504254 13.806380822366513  C 30.258036511133373 13.806380822366513  30.743247913504256 14.283298012731048  30.743247913504256 14.871605181340872  C 30.743247913504256 15.256772538485206  30.531707062585856 15.611939051477485  30.189999999999998 15.800480769230768  L 21.17575 21.339647435897433  C 20.767750000000003 21.590288461538456  20.23225 21.590288461538456  19.82425 21.339647435897433  L 10.81 15.800480769230768  C 10.468292937414143 15.611939051477485  10.25675208649574 15.256772538485205  10.25675208649574 14.871605181340865  C 10.25675208649574 14.283298012731045  10.741963488866617 13.806380822366506  11.340502086495741 13.806380822366506  C 11.56099004351997 13.806380822366506  11.77623294856801 13.87248348940563  11.9575 13.995865384615385  L 20.5 19.246794871794872  L 29.0425 13.995865384615385  Z " fill-rule="nonzero" fill="#558914" stroke="none" fill-opacity="0.9921568627450981" />
  </g>
</svg>