<?xml version="1.0" encoding="utf-8"?>
<svg version="1.1" xmlns:xlink="http://www.w3.org/1999/xlink" width="17px" height="24px" xmlns="http://www.w3.org/2000/svg">
  <g transform="matrix(1 0 0 1 -96 -2390 )">
    <path d="M 16.43333333333333 8.571428571428571  C 16.43333333333333 4.148571428571429  12.886 0.5714285714285713  8.5 0.5714285714285713  C 4.114 0.5714285714285713  0.5666666666666662 4.148571428571429  0.5666666666666662 8.571428571428571  C 0.5666666666666662 14.57142857142857  8.5 23.428571428571427  8.5 23.428571428571427  C 8.5 23.428571428571427  16.43333333333333 14.57142857142857  16.43333333333333 8.571428571428571  Z M 8.5 11.428571428571427  C 6.935193208812752 11.428571428571427  5.666666666666666 10.14938499951655  5.666666666666666 8.571428571428571  C 5.666666666666666 6.993472143340591  6.935193208812752 5.7142857142857135  8.5 5.7142857142857135  C 10.064806791187246 5.7142857142857135  11.333333333333332 6.993472143340591  11.333333333333332 8.571428571428571  C 11.333333333333332 10.14938499951655  10.064806791187246 11.428571428571427  8.5 11.428571428571427  Z " fill-rule="nonzero" fill="#ffffff" stroke="none" fill-opacity="0.9921568627450981" transform="matrix(1 0 0 1 96 2390 )" />
  </g>
</svg>