<?xml version="1.0" encoding="utf-8"?>
<svg version="1.1" xmlns:xlink="http://www.w3.org/1999/xlink" width="41px" height="41px" xmlns="http://www.w3.org/2000/svg">
  <g>
    <path d="M 41 20.5  C 41 31.98  31.98 41  20.5 41  C 9.02 41  0 31.98  0 20.5  C 0 9.02  9.02 0  20.5 0  C 31.98 0  41 9.02  41 20.5  Z M 8.833333333333332 15.5  C 8.833333333333332 24.25  20.5 37.166666666666664  20.5 37.166666666666664  C 20.5 37.166666666666664  32.166666666666664 24.25  32.166666666666664 15.5  C 32.166666666666664 9.05  26.950000000000003 3.833333333333333  20.5 3.833333333333333  C 14.05 3.833333333333333  8.833333333333332 9.05  8.833333333333332 15.5  Z M 20.5 11.333333333333332  C 22.801186457628305 11.333333333333332  24.666666666666664 13.198813542371695  24.666666666666664 15.5  C 24.666666666666664 17.801186457628305  22.801186457628305 19.666666666666664  20.5 19.666666666666664  C 18.198813542371695 19.666666666666664  16.333333333333332 17.801186457628305  16.333333333333332 15.5  C 16.333333333333332 13.198813542371695  18.198813542371695 11.333333333333332  20.5 11.333333333333332  Z " fill-rule="nonzero" fill="#558914" stroke="none" fill-opacity="0.9921568627450981" />
  </g>
</svg>