<?xml version="1.0" encoding="utf-8"?>
<svg version="1.1" xmlns:xlink="http://www.w3.org/1999/xlink" width="92px" height="72px" xmlns="http://www.w3.org/2000/svg">
  <defs>
    <linearGradient gradientUnits="userSpaceOnUse" x1="46" y1="0" x2="46" y2="72" id="LinearGradient24">
      <stop id="Stop25" stop-color="#ff8484" offset="0" />
      <stop id="Stop26" stop-color="#fffcfc" offset="1" />
    </linearGradient>
  </defs>
  <g transform="matrix(1 0 0 1 -224 -360 )">
    <path d="M 91.84237746785584 71.4676914080448  L 91.84237746785584 0.047900650502653894  L 88.89616191375916 0.6361542531669503  L 86.39187869277697 3.829530953344336  L 81.23600147310782 7.611161256186018  L 75.93281347573378 8.955740919418623  L 71.21886858917912 11.812972703787846  L 68.27265303508239 13.325624824924509  L 65.47374825869059 15.5105667776775  L 62.969465037708346 16.382022471910112  L 60.170560261316496 16.603037754053968  L 57.81358781803914 17.292134831460675  L 55.45661537476178 17.35936381462228  L 50.006116599683025 20.552740514799712  L 44.555617824604155 21.813283949080287  L 42.05133460362191 23.662080986025114  L 39.54705138263978 24.586479504497483  L 8.61178806462459 25.931059167730087  L 0.21507373544903885 26.603348999346412  L 0.21507373544903885 71.4676914080448  L 91.84237746785584 71.4676914080448  Z " fill-rule="nonzero" fill="url(#LinearGradient24)" stroke="none" transform="matrix(1 0 0 1 224 360 )" />
  </g>
</svg>