<?xml version="1.0" encoding="utf-8"?>
<svg version="1.1" xmlns:xlink="http://www.w3.org/1999/xlink" width="92px" height="72px" xmlns="http://www.w3.org/2000/svg">
  <defs>
    <linearGradient gradientUnits="userSpaceOnUse" x1="46" y1="0" x2="46" y2="72" id="LinearGradient21">
      <stop id="Stop22" stop-color="#83d31f" stop-opacity="0.4" offset="0" />
      <stop id="Stop23" stop-color="#ffffff" stop-opacity="0.06666666666666667" offset="1" />
    </linearGradient>
  </defs>
  <g transform="matrix(1 0 0 1 -24 -360 )">
    <path d="M 92 72  L 92 7.60175953079181  L 88.75294117647061 7.249853372434018  L 84.64202729999388 5.021114369501447  L 77.37753565526106 12.352492668621721  L 71.07038011874886 14.527272727272702  L 67.12840790842874 13.994721407624638  L 63.69326069657833 15.812903225806451  L 56.48508294056437 7.60175953079181  L 53.10624961743284 1.4434017595307864  L 49.558474628144715 0.09442815249269643  L 46.12332741629432 2.281385281385269  L 42.125041317255324 7.249853372434018  L 39.196719103874656 6.7806451612903516  L 35.36737467099225 9.361290322580658  L 31.987527987395314 8.126150969852745  L 28.09665809768638 10.748258939004415  L 24.51095447383698 9.000186959569987  L 21.383000248776852 6.060247721430244  L 13.679877112135168 2.281385281385269  L 9.779416282642096 9.758441558441575  L 2.374193548387097 16.88225108225106  L 0.2826420890937068 14.527272727272702  L 0 72  L 92 72  Z " fill-rule="nonzero" fill="url(#LinearGradient21)" stroke="none" transform="matrix(1 0 0 1 24 360 )" />
  </g>
</svg>