<?xml version="1.0" encoding="utf-8"?>
<svg version="1.1" xmlns:xlink="http://www.w3.org/1999/xlink" width="17px" height="19px" xmlns="http://www.w3.org/2000/svg">
  <g transform="matrix(1 0 0 1 -35 -489 )">
    <path d="M 16.887109375 13.736653645833332  C 16.962369791666667 14.359266493055554  17 15.021050347222221  17 15.722005208333334  C 17 16.62087673611111  16.723307291666668 17.391927083333336  16.169921875 18.03515625  C 15.616536458333334 18.678385416666664  14.950260416666667 19  14.17109375 19  L 2.82890625 19  C 2.0497395833333334 19  1.3834635416666667 18.678385416666664  0.8300781250000001 18.03515625  C 0.2766927083333334 17.391927083333336  0 16.62087673611111  0 15.722005208333334  C 0 15.021050347222221  0.03763020833333342 14.359266493055554  0.1128906250000001 13.736653645833332  C 0.18815104166666677 13.114040798611107  0.32760416666666675 12.4873046875  0.5312500000000001 11.8564453125  C 0.7348958333333335 11.2255859375  0.9938802083333335 10.685438368055555  1.308203125 10.236002604166668  C 1.622526041666667 9.786566840277775  2.038671875 9.419596354166666  2.556640625 9.135091145833334  C 3.0746093749999996 8.8505859375  3.6700520833333337 8.708333333333334  4.342968750000001 8.708333333333334  C 5.502864583333334 9.763888888888888  6.888541666666668 10.291666666666668  8.5 10.291666666666668  C 10.111458333333337 10.291666666666668  11.497135416666667 9.763888888888888  12.65703125 8.708333333333334  C 13.329947916666669 8.708333333333334  13.925390624999999 8.8505859375  14.443359375 9.135091145833334  C 14.961328125000001 9.419596354166666  15.377473958333335 9.786566840277775  15.691796875000001 10.236002604166668  C 16.00611979166667 10.685438368055555  16.265104166666667 11.2255859375  16.46875 11.8564453125  C 16.672395833333336 12.4873046875  16.811848958333336 13.114040798611107  16.887109375 13.736653645833332  Z M 12.105859375000001 1.3916015625  C 13.101953125000001 2.3193359375  13.600000000000001 3.438802083333334  13.600000000000001 4.75  C 13.600000000000001 6.061197916666666  13.101953125000001 7.1806640625  12.105859375000001 8.1083984375  C 11.109765625000001 9.0361328125  9.907812499999999 9.5  8.5 9.5  C 7.0921875 9.5  5.890234375 9.0361328125  4.894140625 8.1083984375  C 3.8980468750000004 7.1806640625  3.4000000000000004 6.061197916666666  3.4000000000000004 4.75  C 3.4000000000000004 3.438802083333334  3.8980468750000004 2.3193359375  4.894140625 1.3916015625  C 5.890234375 0.4638671875  7.0921875 0  8.5 0  C 9.907812499999999 0  11.109765625000001 0.4638671875  12.105859375000001 1.3916015625  Z " fill-rule="nonzero" fill="#558914" stroke="none" fill-opacity="0.9921568627450981" transform="matrix(1 0 0 1 35 489 )" />
  </g>
</svg>