<?xml version="1.0" encoding="utf-8"?>
<svg version="1.1" xmlns:xlink="http://www.w3.org/1999/xlink" width="54px" height="54px" xmlns="http://www.w3.org/2000/svg">
  <g transform="matrix(1 0 0 1 -86 -1160 )">
    <path d="M 36.666666666666664 27  C 36.666666666666664 21.659166666666664  32.340833333333336 17.333333333333332  27 17.333333333333332  C 21.659166666666664 17.333333333333332  17.333333333333332 21.659166666666664  17.333333333333332 27  C 17.333333333333332 32.340833333333336  21.659166666666664 36.666666666666664  27 36.666666666666664  C 32.340833333333336 36.666666666666664  36.666666666666664 32.340833333333336  36.666666666666664 27  Z M 53.58333333333333 24.583333333333332  L 48.60499999999998 24.58333333333333  C 47.47754931163675 14.489686038044612  39.510313961955376 6.522450688363238  29.416666666666664 5.395  L 29.416666666666664 0.4166666666666665  L 24.583333333333332 0.4166666666666665  L 24.58333333333333 5.395  C 14.489686038044606 6.522450688363234  6.522450688363234 14.489686038044606  5.395 24.583333333333332  L 0.4166666666666665 24.583333333333332  L 0.4166666666666665 29.416666666666664  L 5.395 29.416666666666664  C 6.522450688363234 39.51031396195538  14.489686038044606 47.477549311636764  24.583333333333332 48.605  L 24.583333333333332 53.58333333333333  L 29.416666666666664 53.58333333333333  L 29.416666666666664 48.605  C 39.51031396195538 47.477549311636764  47.477549311636764 39.51031396195538  48.605 29.416666666666664  L 53.58333333333333 29.416666666666664  L 53.58333333333333 24.583333333333332  Z M 43.916666666666664 27  C 43.916666666666664 36.3525  36.3525 43.916666666666664  27 43.916666666666664  C 17.647499999999997 43.916666666666664  10.083333333333332 36.3525  10.083333333333332 27  C 10.083333333333332 17.647499999999997  17.647499999999997 10.083333333333332  27 10.083333333333332  C 36.3525 10.083333333333332  43.916666666666664 17.647499999999997  43.916666666666664 27  Z " fill-rule="nonzero" fill="#333333" stroke="none" transform="matrix(1 0 0 1 86 1160 )" />
  </g>
</svg>