<?xml version="1.0" encoding="utf-8"?>
<svg version="1.1" xmlns:xlink="http://www.w3.org/1999/xlink" width="61px" height="45px" xmlns="http://www.w3.org/2000/svg">
  <defs>
    <filter x="285px" y="961px" width="61px" height="45px" filterUnits="userSpaceOnUse" id="filter11">
      <feOffset dx="5" dy="5" in="SourceAlpha" result="shadowOffsetInner" />
      <feGaussianBlur stdDeviation="2.5" in="shadowOffsetInner" result="shadowGaussian" />
      <feComposite in2="shadowGaussian" operator="atop" in="SourceAlpha" result="shadowComposite" />
      <feColorMatrix type="matrix" values="0 0 0 0 0.6666666666666666  0 0 0 0 0.6666666666666666  0 0 0 0 0.6666666666666666  0 0 0 0.3686274509803922 0  " in="shadowComposite" />
    </filter>
    <g id="widget12">
      <path d="M 0.9812499999999998 3.3874999999999993  C 0.1805780992622571 3.0663402521634158  -0.20831382760740594 2.157060567036508  0.1125 1.3562499999999993  C 0.4336597478365838 0.5555780992622541  1.3429394329634903 0.16668617239259476  2.1437500000000003 0.4875000000000007  L 7.6343749999999995 2.6843749999999993  C 8.751768466404494 3.1312523372529077  9.998231533595506 3.1312523372529077  11.115625000000001 2.6843749999999993  L 14.284375 1.4156249999999986  C 16.147004054831857 0.6705516809645484  18.224870945168142 0.6705516809645502  20.087500000000002 1.4156249999999986  L 23.259375 2.6843749999999993  C 24.376768466404492 3.1312523372529077  25.6232315335955 3.1312523372529077  26.740625000000005 2.6843749999999993  L 29.909374999999997 1.4156249999999986  C 31.772004054831847 0.6705516809645538  33.84987094516814 0.670551680964552  35.7125 1.4156249999999986  L 38.88437499999999 2.6843749999999993  C 40.00176846640449 3.13125233725291  41.2482315335955 3.13125233725291  42.365625 2.6843749999999993  L 47.85625 0.4875000000000007  C 48.0495992808857 0.40528893860779114  48.25754278459186 0.36291633526367306  48.46764419590138 0.36291633526367306  C 49.330589117512 0.36291633526367306  50.03014419590137 1.0624714136530589  50.03014419590137 1.925416335263673  C 50.03014419590137 2.575768396184502  49.627306239743966 3.1581158108921787  49.01875 3.3874999999999993  L 43.525000000000006 5.584374999999996  C 41.66237094516815 6.329448319035441  39.584504054831854 6.329448319035443  37.721875000000004 5.584375  L 34.55312500000001 4.315624999999997  C 33.43573153359551 3.86874766274709  32.1892684664045 3.86874766274709  31.071875000000006 4.315625000000001  L 27.9 5.584374999999996  C 26.037370945168142 6.329448319035443  23.959504054831854 6.329448319035446  22.096875 5.584375  L 18.928125 4.315624999999997  C 17.810731533595508 3.86874766274709  16.564268466404496 3.86874766274709  15.446875000000002 4.315625000000001  L 12.275 5.584374999999996  C 10.41237094516814 6.329448319035446  8.334504054831859 6.329448319035446  6.471875000000001 5.584375  L 0.9812499999999998 3.3874999999999993  Z M 0.9812499999999998 12.762500000000003  C 0.18057809926225674 12.441340252163418  -0.20831382760740685 11.53206056703651  0.1125 10.73125  C 0.4336597478365832 9.930578099262256  1.3429394329634896 9.541686172392595  2.1437500000000003 9.862499999999997  L 7.6343749999999995 12.059375  C 8.751768466404494 12.506252337252906  9.998231533595506 12.506252337252906  11.115625000000001 12.059375  L 14.284375 10.790624999999999  C 16.147004054831857 10.04555168096455  18.224870945168142 10.04555168096455  20.087500000000002 10.790625000000002  L 23.259375 12.059375  C 24.376768466404492 12.506252337252906  25.6232315335955 12.506252337252906  26.740625000000005 12.059375  L 29.909374999999997 10.790624999999999  C 31.772004054831854 10.045551680964554  33.849870945168135 10.04555168096455  35.7125 10.790625000000002  L 38.88437499999999 12.059375  C 40.00176846640449 12.506252337252914  41.2482315335955 12.506252337252914  42.365625 12.059375  L 47.85625 9.862499999999997  C 48.0495992808857 9.78028893860779  48.25754278459186 9.73791633526367  48.46764419590138 9.73791633526367  C 49.330589117512 9.73791633526367  50.03014419590137 10.437471413653057  50.03014419590137 11.300416335263668  C 50.03014419590137 11.9507683961845  49.627306239743966 12.533115810892177  49.01875 12.7625  L 43.525000000000006 14.959374999999998  C 41.66237094516814 15.704448319035443  39.58450405483186 15.704448319035446  37.721875000000004 14.959374999999998  L 34.55312500000001 13.690624999999997  C 33.43573153359551 13.24374766274709  32.1892684664045 13.24374766274709  31.071875000000006 13.690625  L 27.9 14.959374999999998  C 26.037370945168142 15.704448319035446  23.959504054831857 15.704448319035446  22.096875 14.959374999999998  L 18.928125 13.690624999999997  C 17.810731533595508 13.24374766274709  16.564268466404496 13.24374766274709  15.446875000000002 13.690625  L 12.275 14.959374999999998  C 10.412370945168142 15.704448319035446  8.334504054831859 15.704448319035446  6.471875000000001 14.959374999999998  L 0.9812499999999998 12.762500000000003  Z M 0.9812499999999998 22.137500000000003  C 0.18057809926225102 21.816340252163414  -0.20831382760740483 20.907060567036513  0.1125 20.10625  C 0.4336597478365846 19.305578099262256  1.3429394329634907 18.916686172392595  2.1437500000000003 19.237499999999997  L 7.6343749999999995 21.434374999999996  C 8.751768466404494 21.881252337252906  9.998231533595506 21.881252337252906  11.115625000000001 21.434374999999996  L 14.284375 20.165624999999988  C 16.147004054831857 19.42055168096454  18.224870945168142 19.42055168096454  20.087500000000002 20.165624999999995  L 23.259375 21.434374999999996  C 24.376768466404492 21.881252337252906  25.6232315335955 21.881252337252906  26.740625000000005 21.434374999999996  L 29.909374999999997 20.165624999999988  C 31.772004054831854 19.420551680964547  33.849870945168135 19.42055168096454  35.7125 20.165624999999995  L 38.88437499999999 21.434374999999996  C 40.00176846640449 21.881252337252906  41.2482315335955 21.881252337252906  42.365625 21.434374999999996  L 47.85625 19.237499999999997  C 48.04959928088568 19.15528893860781  48.25754278459183 19.112916335263694  48.467644195901315 19.112916335263694  C 49.33058911751193 19.112916335263694  50.030144195901315 19.81247141365308  50.030144195901315 20.675416335263694  C 50.030144195901315 21.325768396184504  49.62730623974394 21.908115810892163  49.01875 22.137500000000003  L 43.525000000000006 24.334374999999994  C 41.66237094516814 25.079448319035443  39.58450405483186 25.079448319035443  37.721875000000004 24.334375  L 34.55312500000001 23.065624999999997  C 33.43573153359551 22.618747662747083  32.1892684664045 22.618747662747083  31.071875000000006 23.065624999999997  L 27.9 24.334374999999994  C 26.037370945168142 25.079448319035443  23.959504054831857 25.079448319035443  22.096875 24.334375  L 18.928125 23.065624999999997  C 17.810731533595508 22.618747662747083  16.564268466404496 22.618747662747083  15.446875000000002 23.065624999999997  L 12.275 24.334374999999994  C 10.412370945168142 25.079448319035443  8.334504054831859 25.079448319035443  6.471875000000001 24.334375  L 0.9812499999999998 22.137500000000003  Z M 0.9812500000000024 31.512500000000003  C 0.18057809926225327 31.191340252163414  -0.20831382760740255 30.282060567036517  0.1125 29.481250000000003  C 0.4336597478365846 28.680578099262256  1.3429394329634907 28.291686172392595  2.1437500000000003 28.612499999999997  L 7.6343749999999995 30.80937499999999  C 8.751768466404494 31.25625233725291  9.998231533595506 31.25625233725291  11.115625000000001 30.809374999999996  L 14.284375 29.54062499999999  C 16.147004054831857 28.795551680964543  18.224870945168142 28.795551680964543  20.087500000000002 29.54062499999999  L 23.259375 30.80937499999999  C 24.376768466404492 31.25625233725291  25.6232315335955 31.25625233725291  26.740625000000005 30.809374999999996  L 29.909374999999997 29.54062499999999  C 31.772004054831854 28.795551680964543  33.849870945168135 28.795551680964543  35.7125 29.54062499999999  L 38.88437499999999 30.80937499999999  C 40.00176846640449 31.25625233725291  41.2482315335955 31.25625233725291  42.365625 30.809374999999996  L 47.85625 28.612499999999997  C 48.04959928088568 28.53028893860781  48.25754278459183 28.48791633526369  48.467644195901315 28.48791633526369  C 49.33058911751193 28.48791633526369  50.030144195901315 29.18747141365308  50.030144195901315 30.05041633526369  C 50.030144195901315 30.700768396184507  49.62730623974394 31.283115810892163  49.01875 31.512500000000003  L 43.525000000000006 33.709374999999994  C 41.66237094516814 34.45444831903544  39.58450405483186 34.45444831903544  37.721875000000004 33.709375  L 34.55312500000001 32.440625  C 33.43573153359551 31.99374766274709  32.1892684664045 31.99374766274709  31.071875000000006 32.440625  L 27.9 33.709374999999994  C 26.037370945168142 34.45444831903544  23.959504054831857 34.45444831903544  22.096875 33.709375  L 18.928125 32.440625  C 17.810731533595508 31.99374766274709  16.564268466404496 31.99374766274709  15.446875000000002 32.440625  L 12.275 33.709374999999994  C 10.412370945168142 34.45444831903544  8.334504054831859 34.45444831903544  6.471875000000001 33.709375  L 0.9812500000000024 31.512500000000003  Z " fill-rule="nonzero" fill="#333333" stroke="none" transform="matrix(1 0 0 1 285 961 )" />
    </g>
  </defs>
  <g transform="matrix(1 0 0 1 -285 -961 )">
    <use xlink:href="#widget12" filter="url(#filter11)" />
    <use xlink:href="#widget12" />
  </g>
</svg>