<?xml version="1.0" encoding="utf-8"?>
<svg version="1.1" xmlns:xlink="http://www.w3.org/1999/xlink" width="23px" height="22px" xmlns="http://www.w3.org/2000/svg">
  <g transform="matrix(1 0 0 1 -73 -372 )">
    <path d="M 22.58451612903226 3.037037037037038  C 22.86150537634409 3.382716049382715  23.000000000000004 3.802469135802469  23 4.296296296296296  C 23.000000000000004 4.790123456790122  22.86150537634409 5.209876543209875  22.58451612903226 5.5555555555555545  L 11.841290322580646 18.962962962962962  L 9.823225806451614 21.48148148148148  C 9.546236559139786 21.82716049382716  9.20989247311828 22  8.814193548387097 22  C 8.418494623655914 22  8.08215053763441 21.82716049382716  7.80516129032258 21.48148148148148  L 5.7870967741935475 18.962962962962962  L 0.415483870967742 12.259259259259261  C 0.1384946236559141 11.913580246913579  0 11.493827160493826  0 11  C 0 10.506172839506172  0.1384946236559141 10.08641975308642  0.415483870967742 9.740740740740742  L 2.4335483870967742 7.222222222222222  C 2.7105376344086025 6.876543209876543  3.0468817204301084 6.7037037037037015  3.4425806451612906 6.703703703703704  C 3.838279569892474 6.7037037037037015  4.174623655913979 6.876543209876543  4.451612903225806 7.222222222222222  L 8.814193548387097 12.685185185185183  L 18.548387096774192 0.5185185185185186  C 18.825376344086024 0.17283950617283872  19.16172043010753 0  19.55741935483871 0  C 19.953118279569892 0  20.289462365591397 0.17283950617283872  20.566451612903226 0.5185185185185186  L 22.58451612903226 3.037037037037038  Z " fill-rule="nonzero" fill="#558914" stroke="none" transform="matrix(1 0 0 1 73 372 )" />
  </g>
</svg>